<svg xmlns="http://www.w3.org/2000/svg" xmlns:xlink="http://www.w3.org/1999/xlink" viewBox="0 0 100 100" version="1.1" x="0px" y="0px"><title>Machine Learning - Similarity learning by Sasha is Sasha. Public Domain. 2017</title><desc>sashaissasha.com</desc><g stroke="none" stroke-width="1" fill="none" fill-rule="evenodd"><g fill="#000000"><path d="M48.0983544,84.9508228 L54,82 L54,84.7758147 C58.2451857,84.2930431 62.2599222,83.0508121 65.9050246,81.1883067 C66.4905361,82.0475643 67.1946107,82.8195649 67.9937104,83.4807705 C63.749073,85.7666807 59.0199411,87.2689382 54,87.7938575 L54,92 L45.4681161,87.7340581 C40.6471868,87.1609313 36.1031357,85.6852627 32.009681,83.4807705 C32.8087807,82.8195649 33.5128553,82.0475643 34.0983668,81.1883067 L34.0983668,81.1883067 C38.3379872,83.3545877 43.0776498,84.6817598 48.0983544,84.9508228 Z M46,62.2064973 L46,59 L52.1118005,62.0559002 C57.8348132,62.3691276 63.2205872,63.9487081 67.9937104,66.5192295 C67.1946107,67.1804351 66.4905361,67.9524357 65.9050246,68.8116933 C62.1546169,66.895381 58.0129093,65.6356996 53.6315019,65.184249 L46,69 L46,65.2245711 C41.7560675,65.7076185 37.7424985,66.9496839 34.0983668,68.8116933 L34.0983668,68.8116933 C33.5128553,67.9524357 32.8087807,67.1804351 32.009681,66.5192295 C36.2533625,64.233834 40.9813204,62.7317384 46,62.2064973 Z M48.0983544,34.9508228 L54,32 L54,34.7758147 C58.2451857,34.2930431 62.2599222,33.0508121 65.9050246,31.1883067 C66.4905361,32.0475643 67.1946107,32.8195649 67.9937104,33.4807705 C63.749073,35.7666807 59.0199411,37.2689382 54,37.7938575 L54,42 L45.4681161,37.7340581 C40.6471868,37.1609313 36.1031357,35.6852627 32.009681,33.4807705 C32.8087807,32.8195649 33.5128553,32.0475643 34.0983668,31.1883067 L34.0983668,31.1883067 C38.3379872,33.3545877 43.0776498,34.6817598 48.0983544,34.9508228 Z M46,12.2064973 L46,9 L52.1118005,12.0559002 C57.8348132,12.3691276 63.2205872,13.9487081 67.9937104,16.5192295 C67.1946107,17.1804351 66.4905361,17.9524357 65.9050246,18.8116933 C62.1546169,16.895381 58.0129093,15.6356996 53.6315019,15.184249 L46,19 L46,15.2245711 C41.7560675,15.7076185 37.7424985,16.9496839 34.0983668,18.8116933 L34.0983668,18.8116933 C33.5128553,17.9524357 32.8087807,17.1804351 32.009681,16.5192295 C36.2533625,14.233834 40.9813204,12.7317384 46,12.2064973 Z M12.2636607,54.5 L8.5,54.5 L12.0935342,47.3129317 C12.4783231,41.8048743 14.0369592,36.6203864 16.5209252,32.0079853 C17.1821308,32.807085 17.9541314,33.5111596 18.8133889,34.0966711 C16.7107816,38.2116761 15.3986802,42.7977598 15.0773356,47.6546711 L18.5,54.5 L15.2866008,54.5 C15.8077023,58.5599061 17.0244127,62.40213 18.8133889,65.9033289 L18.8133889,65.9033289 C17.9541314,66.4888404 17.1821308,67.192915 16.5209252,67.9920147 C14.3113153,63.8890571 12.8339169,59.3334086 12.2636607,54.5 Z M84.9256591,52.3513181 L81.5,45.5 L84.7167906,45.5 C84.195689,41.4400939 82.9789787,37.59787 81.1900024,34.0966711 C82.04926,33.5111596 82.8212606,32.807085 83.4824662,32.0079853 C85.6920761,36.1109429 87.1694745,40.6665914 87.7397307,45.5 L91.5,45.5 L87.9104071,52.6791858 C87.526555,58.1901794 85.9676171,63.3774134 83.4824662,67.9920147 C82.8212606,67.192915 82.04926,66.4888404 81.1900024,65.9033289 L81.1900024,65.9033289 C83.2917455,61.7900154 84.6036324,57.2060104 84.9256591,52.3513181 Z M25,33 C20.581722,33 17,29.418278 17,25 C17,20.581722 20.581722,17 25,17 C29.418278,17 33,20.581722 33,25 C33,29.418278 29.418278,33 25,33 Z M25,30 C27.7614237,30 30,27.7614237 30,25 C30,22.2385763 27.7614237,20 25,20 C22.2385763,20 20,22.2385763 20,25 C20,27.7614237 22.2385763,30 25,30 Z M75,33 C70.581722,33 67,29.418278 67,25 C67,20.581722 70.581722,17 75,17 C79.418278,17 83,20.581722 83,25 C83,29.418278 79.418278,33 75,33 Z M75,30 C77.7614237,30 80,27.7614237 80,25 C80,22.2385763 77.7614237,20 75,20 C72.2385763,20 70,22.2385763 70,25 C70,27.7614237 72.2385763,30 75,30 Z M25,83 C20.581722,83 17,79.418278 17,75 C17,70.581722 20.581722,67 25,67 C29.418278,67 33,70.581722 33,75 C33,79.418278 29.418278,83 25,83 Z M25,80 C27.7614237,80 30,77.7614237 30,75 C30,72.2385763 27.7614237,70 25,70 C22.2385763,70 20,72.2385763 20,75 C20,77.7614237 22.2385763,80 25,80 Z M75,83 C70.581722,83 67,79.418278 67,75 C67,70.581722 70.581722,67 75,67 C79.418278,67 83,70.581722 83,75 C83,79.418278 79.418278,83 75,83 Z M75,80 C77.7614237,80 80,77.7614237 80,75 C80,72.2385763 77.7614237,70 75,70 C72.2385763,70 70,72.2385763 70,75 C70,77.7614237 72.2385763,80 75,80 Z"></path></g></g></svg>