<svg xmlns="http://www.w3.org/2000/svg" xmlns:xlink="http://www.w3.org/1999/xlink" version="1.1" x="0px" y="0px" viewBox="0 0 64 80" style="enable-background:new 0 0 64 64;" xml:space="preserve"><style type="text/css">
	.st0{display:none;}
	.st1{display:inline;}
	.st2{fill:none;stroke:#B3B3B3;stroke-width:0.1;stroke-miterlimit:10;}
</style><g class="st0"><g class="st1"><rect x="2" y="2" class="st2" width="60" height="60"/><line class="st2" x1="32" y1="2" x2="32" y2="62"/><line class="st2" x1="62" y1="32" x2="2" y2="32"/><line class="st2" x1="2" y1="2" x2="62" y2="62"/><rect x="10" y="10" class="st2" width="44" height="44"/><line class="st2" x1="62" y1="2" x2="2" y2="62"/><line class="st2" x1="2" y1="32" x2="32" y2="2"/><line class="st2" x1="32" y1="2" x2="62" y2="32"/><line class="st2" x1="62" y1="32" x2="32" y2="62"/><line class="st2" x1="32" y1="62" x2="2" y2="32"/><circle class="st2" cx="32" cy="32" r="21"/></g></g><path d="M59,2H5C3.3,2,2,3.3,2,5v57h60V5C62,3.3,60.7,2,59,2z M5,4h54c0.6,0,1,0.4,1,1v5H4V5C4,4.4,4.4,4,5,4z M4,60V12h56v48H4z"/><circle cx="7" cy="7" r="1"/><circle cx="11" cy="7" r="1"/><circle cx="15" cy="7" r="1"/><path d="M19,47c-6.1,0-11-4.9-11-11s4.9-11,11-11c4.1,0,7.9,2.3,9.8,6h24.8l2.6,5.2l-6.4,6.4l-2-3l-3,3l-2-3l-3,3l-2-3L35.4,42h-7.2  C26.2,45.1,22.7,47,19,47z M19,27c-5,0-9,4-9,9s4,9,9,9c3.2,0,6.2-1.7,7.8-4.5l0.3-0.5h7.5l3.6-3.6l2,3l3-3l2,3l3-3l2,3l3.6-3.6  L52.4,33H27.5l-0.3-0.6C25.8,29.1,22.6,27,19,27z"/><path d="M17,41c-2.8,0-5-2.2-5-5s2.2-5,5-5s5,2.2,5,5S19.8,41,17,41z M17,33c-1.7,0-3,1.3-3,3s1.3,3,3,3s3-1.3,3-3S18.7,33,17,33z"/></svg>