<svg xmlns="http://www.w3.org/2000/svg" xmlns:xlink="http://www.w3.org/1999/xlink" version="1.1" x="0px" y="0px" viewBox="0 0 24 30" enable-background="new 0 0 24 24" xml:space="preserve"><g><g><path d="M20.24,23.89H3.76c-2.013,0-3.65-1.637-3.65-3.65V3.76c0-2.013,1.638-3.65,3.65-3.65h16.48c2.013,0,3.65,1.637,3.65,3.65    V20.24C23.891,22.253,22.253,23.89,20.24,23.89z M3.76,1.409c-1.296,0-2.35,1.054-2.35,2.35V20.24c0,1.296,1.054,2.35,2.35,2.35    h16.48c1.296,0,2.35-1.054,2.35-2.35V3.76c0-1.296-1.054-2.35-2.35-2.35H3.76z"/></g><g><g><g><path d="M3.742,10.74c-0.166,0-0.333-0.063-0.46-0.19c-0.254-0.254-0.254-0.666,0-0.919l2.64-2.638l-2.64-2.639      c-0.254-0.253-0.254-0.665,0-0.919s0.666-0.254,0.92,0l3.099,3.098c0.121,0.122,0.19,0.287,0.19,0.459s-0.069,0.338-0.19,0.459      L4.202,10.55C4.075,10.677,3.908,10.74,3.742,10.74z"/></g><g><path d="M11.583,10.74H8.25c-0.359,0-0.65-0.291-0.65-0.65s0.291-0.65,0.65-0.65h3.333c0.359,0,0.65,0.291,0.65,0.65      S11.942,10.74,11.583,10.74z"/></g></g></g></g><text x="0" y="39" fill="#000000" font-size="5px" font-weight="bold" font-family="'Helvetica Neue', Helvetica, Arial-Unicode, Arial, Sans-serif">Created by Atif Arshad</text><text x="0" y="44" fill="#000000" font-size="5px" font-weight="bold" font-family="'Helvetica Neue', Helvetica, Arial-Unicode, Arial, Sans-serif">from the Noun Project</text></svg>