<svg xmlns="http://www.w3.org/2000/svg" xmlns:xlink="http://www.w3.org/1999/xlink" version="1.1" x="0px" y="0px" viewBox="0 0 100 125" enable-background="new 0 0 100 100" xml:space="preserve"><path d="M87.378,68.306c5.627-11.514,5.627-25.098,0-36.613c0.342-0.084,0.668-0.253,0.936-0.521c5.372-5.372,5.372-14.114,0-19.487  c-5.373-5.373-14.113-5.373-19.486,0c-0.268,0.267-0.437,0.594-0.521,0.936c-11.514-5.627-25.098-5.627-36.613,0  c-0.084-0.342-0.253-0.669-0.521-0.936c-5.373-5.373-14.113-5.373-19.486,0c-5.372,5.373-5.372,14.115,0,19.487  c0.268,0.268,0.594,0.436,0.936,0.521c-5.627,11.514-5.627,25.098,0,36.613c-0.342,0.084-0.668,0.253-0.936,0.521  c-5.372,5.372-5.372,14.114,0,19.487c2.687,2.687,6.215,4.029,9.743,4.029s7.057-1.343,9.743-4.029  c0.268-0.268,0.437-0.594,0.521-0.936c5.757,2.813,12.03,4.232,18.306,4.232s12.549-1.418,18.306-4.232  c0.084,0.342,0.253,0.669,0.521,0.936c2.687,2.687,6.215,4.029,9.743,4.029s7.057-1.343,9.743-4.029  c5.372-5.373,5.372-14.115,0-19.487C88.046,68.56,87.72,68.391,87.378,68.306z M77.984,75.156L62.882,60.054  c1.869-2.392,2.975-5.183,3.327-8.054h10.077c1.104,0,2-0.896,2-2s-0.896-2-2-2H66.209c-0.351-2.872-1.458-5.663-3.327-8.054  l15.102-15.102C90.819,39.106,90.819,60.894,77.984,75.156z M41.265,58.736c-4.816-4.817-4.816-12.655,0-17.472  c2.409-2.408,5.571-3.612,8.735-3.612c3.163,0,6.327,1.205,8.735,3.612c4.816,4.817,4.816,12.655,0,17.472  C53.917,63.551,46.081,63.551,41.265,58.736z M85.485,14.514c3.8,3.801,3.81,9.974,0.036,13.79c-1.682-2.755-3.704-5.36-6.085-7.741  c-2.381-2.381-4.986-4.403-7.741-6.086C75.513,10.704,81.686,10.714,85.485,14.514z M75.156,22.016L60.054,37.118  c-2.391-1.869-5.182-2.976-8.054-3.327V23.715c0-1.104-0.896-2-2-2s-2,0.896-2,2v10.075c-2.872,0.351-5.663,1.458-8.054,3.327  L24.844,22.016c7.131-6.418,16.142-9.628,25.156-9.628C59.012,12.389,68.026,15.6,75.156,22.016z M14.515,14.514  c3.8-3.8,9.974-3.81,13.79-0.036c-2.755,1.683-5.36,3.705-7.741,6.086c-2.381,2.381-4.403,4.986-6.085,7.741  C10.705,24.488,10.715,18.315,14.515,14.514z M22.016,24.844l15.102,15.101c-1.869,2.392-2.975,5.183-3.327,8.054H23.715  c-1.104,0-2,0.896-2,2s0.896,2,2,2h10.077c0.351,2.872,1.458,5.663,3.327,8.054L22.016,75.156  C9.181,60.894,9.181,39.106,22.016,24.844z M14.515,85.486c-3.8-3.801-3.81-9.974-0.036-13.79c1.682,2.755,3.704,5.36,6.085,7.741  c2.381,2.381,4.986,4.403,7.741,6.086C24.489,89.297,18.316,89.287,14.515,85.486z M24.844,77.984l15.102-15.101  c2.391,1.869,5.182,2.976,8.054,3.327v10.075c0,1.104,0.896,2,2,2s2-0.896,2-2V66.209c2.872-0.351,5.663-1.458,8.054-3.327  l15.102,15.101C60.894,90.818,39.106,90.818,24.844,77.984z M85.485,85.486c-3.8,3.8-9.975,3.81-13.79,0.036  c2.755-1.683,5.36-3.704,7.741-6.086c2.381-2.381,4.403-4.986,6.085-7.741C89.295,75.512,89.285,81.685,85.485,85.486z"/><text x="0" y="115" fill="#000000" font-size="5px" font-weight="bold" font-family="'Helvetica Neue', Helvetica, Arial-Unicode, Arial, Sans-serif"></text><text x="0" y="120" fill="#000000" font-size="5px" font-weight="bold" font-family="'Helvetica Neue', Helvetica, Arial-Unicode, Arial, Sans-serif"></text></svg>