<svg xmlns="http://www.w3.org/2000/svg" xmlns:xlink="http://www.w3.org/1999/xlink" version="1.1" x="0px" y="0px" viewBox="0 0 128 160" style="enable-background:new 0 0 128 128;" xml:space="preserve"><g><path d="M64,87.1c5.4,0,9.7-4.4,9.7-9.7s-4.4-9.7-9.7-9.7s-9.7,4.4-9.7,9.7S58.7,87.1,64,87.1z M64,70.6c3.7,0,6.7,3,6.7,6.7   s-3,6.7-6.7,6.7c-3.7,0-6.7-3-6.7-6.7S60.3,70.6,64,70.6z"/><path d="M52.8,106.5l3,6.4l7.9-15.1l7.9,15.1l3-6.4l6.7,1.3L73,92.7c0.3,0.1,0.6,0.2,0.9,0.3l1.8,0.5l0.1-1.9   c0.1-2,0.2-4.3,0.3-5.4c1-0.4,3.2-1.3,5.1-2.1l1.8-0.7l-1-1.6c-1.1-1.7-2.4-3.7-2.9-4.6c0.5-0.9,1.8-2.9,2.9-4.6l1-1.6l-1.7-0.7   c-1.9-0.8-4.2-1.7-5.2-2.1c-0.1-1.1-0.2-3.3-0.2-5.3l-0.1-1.9l-1.9,0.5c-1.9,0.5-4.1,1.1-5.1,1.4c-0.7-0.8-2.3-2.6-3.6-4.2L64,57.4   l-1.2,1.4c-1.3,1.6-2.9,3.4-3.6,4.2c-1-0.2-3.2-0.8-5.1-1.4l-1.8-0.5L52.2,63c-0.1,2-0.2,4.4-0.4,5.5c-1,0.4-3.2,1.3-5,2L45,71.1   l1.1,1.6c1.1,1.7,2.4,3.7,2.9,4.6c-0.5,0.9-1.8,2.9-2.9,4.6L45,83.5l1.8,0.7c1.9,0.7,4.1,1.5,5,2c0.1,1.1,0.3,3.4,0.3,5.5l0.1,1.9   l1.8-0.5c0,0,0.1,0,0.1,0L46,107.8L52.8,106.5z M75.6,103.6l-2.7-0.5l-1.4,3l-5.7-11c1.2-1.4,2.4-2.9,3.1-3.6c0.1,0,0.1,0,0.2,0   L75.6,103.6z M49.6,82c2.5-3.9,2.5-4.2,2.5-4.7c0-0.4,0-0.8-2.5-4.7c4.3-1.6,4.5-1.9,4.8-2.3c0.2-0.3,0.5-0.6,0.7-5.3   c4.4,1.3,4.7,1.2,5.1,1c0.4-0.1,0.8-0.2,3.8-3.9c3,3.7,3.4,3.8,3.8,3.9c0.4,0.2,0.7,0.2,5.1-1c0.2,4.5,0.3,4.7,0.6,5.1   c0.2,0.3,0.5,0.6,4.9,2.4c-2.6,3.9-2.6,4.3-2.6,4.7c0,0.4,0,0.8,2.6,4.7c-4.4,1.7-4.6,2-4.9,2.3c-0.3,0.4-0.5,0.6-0.7,5.2   c-4.3-1.2-4.6-1.1-5.1-1c-0.4,0.1-0.8,0.2-3.8,3.9c-3-3.7-3.4-3.8-3.8-3.9c-0.1,0-0.2-0.1-0.5-0.1c-0.5,0-1.5,0.2-4.6,1.1   c-0.2-4.7-0.4-5-0.7-5.3C54.1,83.9,54,83.6,49.6,82z M59.3,91.5c0.6,0.6,1.6,1.8,2.6,3.1l-6,11.5l-1.4-3l-2.7,0.5l6.5-11.8   C58.6,91.7,59,91.6,59.3,91.5z"/><polygon points="94.2,17 33.8,17 33.8,92.3 47.8,92.3 47.8,89.3 36.8,89.3 36.8,20 91.2,20 91.2,89.3 80,89.3 80,92.3 94.2,92.3     "/><rect x="44" y="26.1" width="40" height="3"/><rect x="44" y="36.1" width="35" height="3"/><rect x="44" y="46.1" width="30" height="3"/></g><text x="0" y="143" fill="#000000" font-size="5px" font-weight="bold" font-family="'Helvetica Neue', Helvetica, Arial-Unicode, Arial, Sans-serif"></text><text x="0" y="148" fill="#000000" font-size="5px" font-weight="bold" font-family="'Helvetica Neue', Helvetica, Arial-Unicode, Arial, Sans-serif"></text></svg>