<svg xmlns="http://www.w3.org/2000/svg" xmlns:xlink="http://www.w3.org/1999/xlink" version="1.1" x="0px" y="0px" viewBox="0 0 100 125" style="enable-background:new 0 0 100 100;" xml:space="preserve"><path d="M62.4,34h2.1v-4H35.6v4h2.5c0.3,7.5,3.1,12.5,7.9,14.1v4.2c-4.7,1.6-7.5,6.4-7.9,13.8h-2.5v4h28.9v-4h-2.1  c-0.4-7.4-3.1-12.3-7.9-13.8V48C59.3,46.4,62,41.5,62.4,34z M53.1,53.9c5.3,1.3,6.9,7,7.1,12.1h-2h-16h-2.3  c0.3-5.1,1.8-10.8,7.1-12.1l0.7-0.2v-7.2l-0.7-0.2c-5.4-1.4-6.9-7.2-7.1-12.4h20.3c-0.2,5.2-1.7,11-7.1,12.4l-0.7,0.2v7.2L53.1,53.9  z M42.8,41.9c0,0,2,4,7.1,4s7.3-4,7.3-4H42.8L42.8,41.9z"/><path d="M67.2,5H17v90h66V20.8L67.2,5z M78,90H22V10h42.2v14.8H78V90z M74.7,19.8h-5.5v-5.9L74.7,19.8z"/></svg>