<svg xmlns:dc="http://purl.org/dc/elements/1.1/" xmlns:cc="http://creativecommons.org/ns#" xmlns:rdf="http://www.w3.org/1999/02/22-rdf-syntax-ns#" xmlns:svg="http://www.w3.org/2000/svg" xmlns="http://www.w3.org/2000/svg" xmlns:sodipodi="http://sodipodi.sourceforge.net/DTD/sodipodi-0.dtd" xmlns:inkscape="http://www.inkscape.org/namespaces/inkscape" viewBox="0 0 69.999999 87.5" version="1.1" x="0px" y="0px"><g transform="translate(-82.393755,-105.33571)" style="" display="inline"><g style="" transform="matrix(0.26458333,0,0,0.26458333,-33.403463,56.772625)" display="inline"><path style="color:#000000;font-style:normal;font-variant:normal;font-weight:normal;font-stretch:normal;font-size:medium;line-height:normal;font-family:sans-serif;font-variant-ligatures:normal;font-variant-position:normal;font-variant-caps:normal;font-variant-numeric:normal;font-variant-alternates:normal;font-feature-settings:normal;text-indent:0;text-align:start;text-decoration:none;text-decoration-line:none;text-decoration-style:solid;text-decoration-color:#000000;letter-spacing:normal;word-spacing:normal;text-transform:none;writing-mode:lr-tb;direction:ltr;text-orientation:mixed;dominant-baseline:auto;baseline-shift:baseline;text-anchor:start;white-space:normal;shape-padding:0;clip-rule:nonzero;display:inline;overflow:visible;visibility:visible;opacity:1;isolation:auto;mix-blend-mode:normal;color-interpolation:sRGB;color-interpolation-filters:linearRGB;solid-color:#000000;solid-opacity:1;vector-effect:none;fill:#000000;fill-opacity:1;fill-rule:nonzero;stroke:none;stroke-width:12;stroke-linecap:round;stroke-linejoin:round;stroke-miterlimit:4;stroke-dasharray:none;stroke-dashoffset:0;stroke-opacity:1;paint-order:normal;color-rendering:auto;image-rendering:auto;shape-rendering:auto;text-rendering:auto;enable-background:accumulate" d="m 132.2832,12.283203 c -66.203088,0 -119.999997,53.796909 -119.999997,119.999997 0,66.2031 53.796909,120 119.999997,120 66.20309,0 120,-53.7969 120,-120 0,-66.203088 -53.79691,-119.999997 -120,-119.999997 z m 0,12 c 59.71781,0 108,48.282189 108,107.999997 0,59.71782 -48.28219,108 -108,108 -59.717808,0 -107.999997,-48.28218 -107.999997,-108 0,-59.717808 48.282189,-107.999997 107.999997,-107.999997 z" transform="translate(437.65878,183.54552)"/><path style="color:#000000;font-style:normal;font-variant:normal;font-weight:normal;font-stretch:normal;font-size:medium;line-height:normal;font-family:sans-serif;font-variant-ligatures:normal;font-variant-position:normal;font-variant-caps:normal;font-variant-numeric:normal;font-variant-alternates:normal;font-feature-settings:normal;text-indent:0;text-align:start;text-decoration:none;text-decoration-line:none;text-decoration-style:solid;text-decoration-color:#000000;letter-spacing:normal;word-spacing:normal;text-transform:none;writing-mode:lr-tb;direction:ltr;text-orientation:mixed;dominant-baseline:auto;baseline-shift:baseline;text-anchor:start;white-space:normal;shape-padding:0;clip-rule:nonzero;display:inline;overflow:visible;visibility:visible;opacity:1;isolation:auto;mix-blend-mode:normal;color-interpolation:sRGB;color-interpolation-filters:linearRGB;solid-color:#000000;solid-opacity:1;vector-effect:none;fill:#000000;fill-opacity:1;fill-rule:evenodd;stroke:none;stroke-width:0;stroke-linecap:round;stroke-linejoin:round;stroke-miterlimit:4;stroke-dasharray:none;stroke-dashoffset:0;stroke-opacity:1;paint-order:fill markers stroke;color-rendering:auto;image-rendering:auto;shape-rendering:auto;text-rendering:auto;enable-background:accumulate" d="m 569.92249,233.04062 c -1.59139,0.0254 -3.02668,0.96272 -3.68973,2.40963 l -44.4163,74.63347 c -0.72083,0.78761 -1.10876,1.82368 -1.08245,2.89104 -0.0244,1.86952 1.20988,3.52237 3.00934,4.02993 l 43.62161,26.66325 c 1.51157,1.23605 3.68212,1.245 5.20383,0.0215 l 43.92549,-26.87167 c 0.79512,-0.30734 1.4757,-0.85311 1.94841,-1.56249 l 10e-4,-0.002 c 0.004,-0.005 0.007,-0.0111 0.0111,-0.0161 0.0628,-0.0949 0.12145,-0.19215 0.17615,-0.29179 0.0481,-0.088 0.093,-0.17769 0.13446,-0.26893 0.0111,-0.0223 0.0208,-0.0448 0.031,-0.0673 0.20367,-0.45973 0.32169,-0.95279 0.34826,-1.45492 10e-4,-0.031 0.004,-0.0618 0.004,-0.0928 0.002,-0.0825 0.004,-0.16494 0.001,-0.24741 -0.002,-0.0933 -0.007,-0.18667 -0.0161,-0.27969 l -0.004,-0.0471 c -0.0815,-0.82282 -0.40794,-1.60227 -0.93724,-2.23751 l -44.46474,-74.81217 c -0.68454,-1.47962 -2.17524,-2.41829 -3.8054,-2.3962 z m -42.04291,98.33948 c -2.69911,0.10974 -4.56842,2.7378 -3.78657,5.32351 0.004,0.008 0.006,0.018 0.009,0.0268 0.0328,0.10863 0.07,0.21583 0.11159,0.32138 0.039,0.0971 0.0815,0.19259 0.12774,0.28642 0.007,0.0144 0.0133,0.0288 0.0202,0.0431 0.1407,0.28568 0.31397,0.55417 0.51635,0.80007 l 41.48493,58.29587 c 1.56411,2.84247 5.64414,2.85538 7.22619,0.0229 l 41.57543,-58.49629 c 0.0486,-0.0686 0.0954,-0.13842 0.13984,-0.20977 0.0159,-0.0226 0.0316,-0.0456 0.0471,-0.0686 2.36622,-3.80365 -2.1657,-8.12629 -5.85331,-5.58301 l -39.51501,24.28992 -39.50962,-24.26034 c -0.75087,-0.54838 -1.66476,-0.82742 -2.59386,-0.792 z"/></g></g><text x="0" y="85" fill="#000000" font-size="5px" font-weight="bold" font-family="'Helvetica Neue', Helvetica, Arial-Unicode, Arial, Sans-serif"></text><text x="0" y="90" fill="#000000" font-size="5px" font-weight="bold" font-family="'Helvetica Neue', Helvetica, Arial-Unicode, Arial, Sans-serif"></text></svg>